<?xml version="1.0" encoding="UTF-8" standalone="no"?>
<svg xmlns="http://www.w3.org/2000/svg" width="300" height="300" viewBox="-18 -6 36 17">
  <g transform="translate(-13.0069 -9.56174) scale(.1032)">
    <path fill="#ffcd00" stroke="#ffb52a" stroke-width="8.6432066" d="M296.13285 116.87733c0 93.49249-76.15502 169.28313-170.097 169.28313-93.941972 0-170.096992-75.79064-170.096992-169.28313 0-93.492496 76.15502-169.283135 170.096992-169.283135 93.94198 0 170.097 75.790639 170.097 169.283135z"/>
    <g fill-rule="evenodd">
      <path fill="#ffb52a" d="M240.03612647 116.87711362a114.00013731 114.00021251 0 1 1-228.00027374 0 114.00013731 114.00021251 0 1 1 228.00027374 0z"/>
      <path fill="#ffef7f" stroke="#d39a03" stroke-width=".97693259" d="M121.45106 8.1830505c-6.38721.9000313-12.82881 1.4954491-19.0741 3.2076575-7.366712 1.574401-14.640634 3.79855-21.495757 6.96817-7.705532 3.792921-15.138966 8.197643-22.080803 13.301064-2.261646 1.017931-.342753 1.478798-.599566 3.127504-.632863 1.441119-1.966724 2.526135-3.100798 3.611-1.256369.109268-2.323046.856475-3.204339 1.465123-.426059 1.629148-1.346684 3.917908-3.396339 3.549478-1.107233-.850026.447277-2.365739 1.352336-2.843502 1.650965-.462463.882753-1.824185-.071674-1.02751-1.318381 1.162154-2.74312 2.569241-3.720741 3.871012.865267.507804 2.31935.090664 1.864948 2.203725.127424 1.480262-.938491 2.768175-1.708525 3.928794-1.087018-.750204-.36593-2.434075-1.37645-3.289844.092865-2.18219.122639-1.831111-1.360015-.276443-2.643989 3.227325-5.328916 6.468948-7.837156 9.826558 2.333101-1.146526 4.411654-2.690481 6.538132-4.184165.430196 1.981157 1.113725 1.388447 2.310202.54518 1.451782-.637144 2.571552 1.291075 3.351996 2.233619.285087 1.093477-2.137136 1.907533-.312828 2.331622.034579-1.637788 1.434613-2.873543 2.033386-4.343852.931988-.84892 3.253364-1.822174 1.839912-3.292788-1.516103-1.416269-1.656293-2.131051.597675-1.633853 1.424613-.101078 3.044334.559692 3.56872 1.924258-.77989 1.720368 1.084926 3.488817 2.747158 3.200235 1.924927-.807669 2.84176-3.209998 4.174332-4.813864 1.67181-2.571375 4.32131-4.503265 6.279906-6.690814-1.379599.438294-2.124587-1.435886-.929553-2.170279 1.967288-1.674633 4.261915-2.991038 5.715826-5.207901-3.352358 1.0447-6.465293 2.577179-9.834265 3.556227-1.762088.173427-3.302666 1.035587-4.868692 1.809728-1.10089-.959279-.697108-2.494062.572389-3.031432 3.04635-2.16031 5.908011-4.5485 8.689909-7.047486 3.064911-2.399344 6.217722-5.268386 10.164384-5.699527 1.416268.769996 2.846583 1.514503 4.254468 2.299695-1.058705 2.044547 1.4571.887383 2.596139 1.143936 1.644719-.104578 3.278783.170699 4.911756.325308.722416 1.583892-.802798 2.325952-2.126974 1.919961-1.651367.217041-2.791572 1.413463-3.629071 2.807193-1.405678 1.341-2.754443-.516868-4.285768-.287461-1.386867 1.714117-2.773744 3.428249-4.160619 5.142362 2.783807-.588415 4.863591-2.944147 7.633027-3.673115-.30855.688991-2.232358 2.955013-1.42342 2.440537 3.148228-2.133905 6.098236-4.566254 9.400557-6.465007 1.50159-1.245668 3.00316-2.491332 4.504741-3.736995-1.870983-.693693-3.775421.82497-5.627339 1.172946-.907924.317656-2.549452.137566-2.881618-.629963.398836-2.336452 3.15731-2.552108 4.975377-3.18639 1.333849-.407717 3.139279-.493327.749406-.710312-1.08505.17365-3.257831-.253189-1.908273-1.660886.937202-1.152483 2.159075-1.796827 3.534988-2.23582.580466 1.92788 2.459724.681797 3.872374.781672 1.597719.012844 3.100019-.466886 4.342209-1.437395 2.66553-.641907.08658-.475447-.90185-1.366277-1.09207-1.378192 1.13836-2.088643 2.23812-2.314449 4.45632-1.452287 9.06265-2.617589 13.71817-3.118339 4.64593-.401779 9.30496-.6100346 13.95763-.9135181 2.22203-1.2014546.96528-1.4364567-.90434-1.3554185-3.22617-.2966564-6.4382-.1488317-9.6693-.0499589zm31.93983 7.3781745c1.2079 1.812064 3.18105 3.511288 3.09701 5.876995-1.08226 1.208661 1.97695.524741 2.72163 1.309545.73085.859907 1.99313 1.757876 1.93952 2.938495-.61814 1.148585-2.96602.761069-1.15746 2.076107.51939 1.232298-.66796 2.370108-1.34517 3.194015-1.82207.647233-3.66127-.782583-5.46476.161308-2.01458.458193-.93739.278555-.16129 1.477566.2228 1.106845-.4083 2.425148.58952 3.567387.56787 2.279616 1.18031 4.549565 1.72055 6.835184-1.51863.304589.15483 3.028654-1.93955 2.235813-1.46395-2.094627-1.66513-.322528-.55913 1.071002.72693 1.669754 2.00975 2.975046 3.03049 4.454647-2.02493.093481-4.0599.500112-6.06887.031944 1.831.398551.82431 2.27705-.26279 2.960954-1.51271 1.149151-3.17412 2.516987-5.02352 2.963463-2.11473-.592735-1.55759.536659-.72188 1.818387.69304 1.632595-1.52275 1.407811-2.50076 1.040737-4.131-1.591983-7.835-4.52722-12.16248-5.435589-2.79691.647117-5.96744 1.152779-7.92953 3.464967-1.04287 2.424149-3.16848 4.21172-5.02803 5.973788-2.12346 1.765107-4.92922 3.050493-6.19418 5.61082-.14244 1.304929-.60911 3.122362.43801 4.088346 1.28539-.081331 2.91075-1.085359 4.00415-.383284.40969 1.330513.06429 2.808217 1.12618 3.8967.36272 1.694427-1.5856 3.159012-3.06571 2.267746-.89871-.676776 1.20943-2.191563.70418-2.772692-1.29274.437682-2.52528 1.234671-2.49083 2.79556-.22983 1.654916-.97147 3.509884-2.86744 3.582459-2.57334.239309-3.93385 2.72188-6.35739 3.389569.44806 1.173981-1.64815 1.394272-2.37757 1.94835-1.289782.242384-2.581566.379351-3.879079.095823-.310324 1.632558-3.293298-.135296-2.615274 1.71405 1.001698 2.112136 2.197233 4.552798.983384 6.855627-.516836 1.289418-1.368774 2.474894-2.902366 2.076599-2.339271-.305446-4.558385-1.486389-6.852717-2.118251-2.015108.993599-1.428539 3.852338-2.774717 5.455808-1.040502 1.42258-1.102438 3.23583-1.667455 4.86084.950532 1.13432 3.274875 1.54212 2.833939 3.48018-.263802 1.50807-.938118 3.04619-2.445866 3.64452-1.834334 1.26925-3.826249 2.59524-5.158275 4.37829-.723847 1.75607-1.833609 3.56384-3.770024 3.95604-2.03644.64836-4.017679 1.39629-5.513595 3.02004-2.343567 2.21744-4.464545 4.78477-6.088602 7.57689-.654586 1.88684-.671623 3.85877-.629415 5.82041-1.25976 3.47808-3.283997 7.09754-2.519834 10.88031 1.564287 2.60686 3.893378 5.02231 3.927555 8.25183 2.742468 3.00234 5.484938 6.00466 8.227408 9.0069 3.990913.58669 7.795007 2.21366 11.793607 2.6275 2.813562.17248 5.716942-.23892 8.478644.19878 2.663833.37433 3.189069 4.02151 5.905747 4.30661 1.72091.50651 3.486169.8505 5.23003 1.26732-1.156055 1.23975 1.444255 1.20692.938515 2.61935-.37257 2.10788-1.364233 4.29774-1.427208 6.34627 1.945258 3.56754 5.487348 6.00526 6.800408 9.95723.93309 2.40978 1.77183 4.95566 2.63515 7.42783-1.3801 2.02634-3.94973 4.20455-2.7981 6.91773 2.46564 3.38343 4.49095 7.14023 7.24482 10.27937 1.92869 1.84559 3.65288 4.04701 5.68201 5.69988 4.34151 1.36098 8.87903-.07464 13.28974-.30638 2.62911-.06848 5.03132-1.40793 7.30099-2.63427 1.97253-1.13095 3.76762-2.5173 5.25591-4.24159 1.40765-.75001 3.60565-1.24628 3.33195-3.32199-.04633-1.37226.01826-2.75731 1.26665-3.57741 3.27922-2.08937 6.50409-4.23226 9.63513-6.54742.03882-2.35913-.04643-4.69543-1.04356-6.86937-.84662-1.48079.57178-3.0657-.242-4.60138-.00014-1.37265.48166-2.8173.56603-4.18014 4.84181-5.56882 9.80677-11.05005 14.57254-16.67346 2.19335-3.99304 4.33051-8.09711 5.44849-12.55174-.9219-1.29008-2.63053.65314-3.79982.91703-2.73948 1.34424-5.41127 2.80452-8.43176 3.29908-2.26692-2.89767-4.89092-5.45759-7.53916-7.98495-.93587 1.11009-2.9507.0603-2.50262-1.37333-.9734-2.84195-3.83551-4.49814-4.4735-7.50595-.38735-2.09582-2.37492-3.05609-3.10838-4.94851-1.36728-2.32579-2.52452-4.93054-3.36717-7.41238.2219-1.7636 2.01215-1.46083 3.09078-.69382 2.22934 2.29705 4.41784 4.958 6.43949 7.46902 1.70016 4.43954 5.72709 7.22205 8.21548 11.08902.95586 2.02411 1.63322 4.19562 2.93226 6.0269 3.27991-.63498 5.74783-3.26686 8.43272-5.00113 3.10974-2.0997 5.34652-5.19321 8.3036-7.48731 1.57595-1.56033 3.08236-3.17042 3.78356-5.34679 1.13166-1.9446 1.3206-4.22581 1.87866-6.37525-1.31613-.93347-2.85998-1.24011-4.37965-1.56511-1.23105-.28599-1.20335-3.71908-2.22664-1.52239-1.0046 1.29291-1.56731 3.14516-3.37884 3.4307-.86141.52046-3.04061 1.45372-3.12826-.17875.03764-2.2083-.49553-1.52048-1.86307-1.21407-1.04474-.66379-1.41915-2.30791-2.59197-3.0259-1.0579-1.20515-3.30551-2.72513-2.13982-4.51638.94955-.52855 1.62252-2.6989 2.15852-2.45941 1.62715 2.09683 3.34367 4.39141 6.1512 4.73921 2.09287.81335 4.09776-.274 5.8782-1.33657 1.00277-.39093 3.54548-2.35313 2.03228-.20432-1.4974 1.61472.94481 1.84466 2.06238 1.37713 3.65997-.35848 6.87078-2.66823 10.18487-3.87275 3.06238 1.91615 6.11338 4.10881 9.76025 4.5674 2.65995.59285 3.03541 3.86052 4.5361 5.78041 1.90831 3.33279 4.01833 6.53295 6.16267 9.71053 1.48291.30783 1.09507-2.10153 2.56523-2.23579.87082.20472 1.34745 2.10896 1.75181 3.06626 1.15155-1.92643-1.05166-3.721-1.62482-5.51575-1.33391-2.66326-1.32395-5.8-1.87884-8.69762 1.83228-5.68132 2.46059-11.68872 4.19835-17.38117.46539-1.55183 1.28065-3.0158 2.15207-4.33809 1.82727-.86632 3.23509 1.23352 4.40046 2.34922 1.08625.77564 1.4537 3.43843 1.85811.7843.40926-.66771.81546-4.32472 1.24932-2.49472 1.06835 3.34834 2.01443 6.74257 3.15957 10.06114-.58866-1.89789-.55121-3.93167-.25029-5.84505.43699-2.04309 2.89363.89075 2.54174-.82836-.16168-3.40363-.56162-6.85682-1.4671-10.11145-1.73421-2.425317-3.77471-4.913077-3.71046-8.094931-.13102-1.778665-.28977-3.555301-.3986-5.335601 1.33428 2.547979.66021.211586.30174-1.273306-.80788-3.515261-1.63001-7.027322-2.42898-10.544535 1.60202-.660967-.09073-2.048823-.53182-2.970438-2.44314-3.736068-4.7492-7.66305-7.63192-11.03134-1.44077-1.109775-3.17671-1.90012-3.76314-3.795121-.68648-1.278408-2.63691-.656441-3.2767-2.11981-.85855-1.090753-2.50543-2.297812-1.82615-3.856584.45448-1.221424-1.58312-3.993793.62693-2.251254 1.52099.81725 2.8572 1.805146 4.17119 2.931809-.42995-1.819216-2.63563-2.523348-3.91373-3.742431-5.00711-3.91421-8.49217-9.425416-13.35286-13.543337-1.29968-1.373112-2.80559-2.579866-4.24838-3.712769-.36534-1.530603-1.36112-1.983116-2.94669-2.447693-1.24142-.510383-2.609-.791014-3.34663-1.946135-1.95213-1.055335-1.44579-.488714-.68063 1.049426-.3567 1.83461-2.23988.398983-3.35707.100349-5.14057-3.368067-9.92216-7.462612-15.04366-10.837785-1.9258-.152012-3.67505-1.151312-5.38406-1.938284.11067-1.638927-.85325-1.599317-2.60025-2.022663-4.71366-1.189656-9.40451-2.622122-14.13574-3.648898-2.353.34724-4.67581-.291615-6.91389-.97199 3.98338 1.756722 7.96674 3.513431 11.95007 5.270126zm-52.17982-3.162071c1.42675.36757.97211 2.355416-.31284 2.395508-1.267148.365097-2.240202-1.225998-1.085119-2.022257.297819-.535097.906939-.309077 1.397959-.373251zm-2.565235 3.098183c.729854 1.069586-.297859 2.605488-1.470309 2.26776-1.352605-.640726-.809814-2.607752.687418-2.239496.26098-.008271.521598-.033926.782891-.028264zm-.31283 6.100582c-2.596497.452018-.714067.471795.844638.638805 1.668377-.006433 1.849237 1.741742.907187 2.714916.40355 1.363643 2.55959.563301 3.67761 1.038414 1.67864.12194 3.57412.58626 4.70626 1.836192.38027 1.570751-1.26628 2.138707-2.45474 1.561224-1.55693-.564266-3.26273-.515757-4.57733.626273-1.34036.511583-1.074 2.427683-2.433172 3.01683-2.169476 1.650596-4.555221 3.215052-6.900795 4.509081-1.673447.213642-2.163753.974449-2.793502 2.27559-1.864292.587132-4.133653.1256-5.641057 1.733199-2.858537 1.910291-5.006713 4.644867-7.420828 7.07085-1.041773 2.015265-.054801 2.476565 1.61845 1.347156 2.408644-.886762 4.765006-2.108931 7.20309-2.805253 4.685884.074863 9.520624.875089 14.099232-.310786 2.674762-1.674885 5.052072-3.817933 8.049282-4.874663.86113-1.118226 1.78708-2.193411 3.00657-2.847674.85983-1.239207 1.84209-2.365884 3.40584-2.538021 1.36854-.202582 2.40022-1.203385 1.47094-2.503529 1.11252-1.537622-.32726-2.299863-1.61099-2.906691-.87941-.94669-3.70352-1.143729-2.80544-2.768725.76509-.932415 2.77483-1.739356 1.10051-3.067491-1.27664-1.083022-3.01989-1.346921-4.56743-1.893167-.87907 1.071528-2.49524 2.366293-3.7539 1.149851-1.10601-1.171724.55339-2.263924 1.00104-2.970438-1.13085.836466-2.6875 1.502994-3.81859.256674-.665775-.560947-1.524326-.656483-2.312875-.288617zM53.911302 35.683533c-1.184712.718386-2.632033 2.564403-.531815 1.085966.654006-.760332 2.452074-2.833869.649594-1.18218l-.117779.096214zm70.011068 5.334003c-1.03098 1.689142 1.18572 1.914322 1.69116.232411 1.54863-1.493426-1.13449-.191052-1.69116-.232411zm20.0524 2.139995c-.62113 1.933042.23983 3.917175.62565 5.813114 1.84136 1.54204.93362.424639.11831-.9777-.52171-1.770072.09425-3.709905-.21218-5.5381-.17727.234229-.35453.468454-.53178.702686zM93.734411 54.049128c-.614827 1.097852-1.763155 3.530407.499651 3.172687 1.05387.082169 3.352416.038771 3.285585-1.224337-1.133869-.856116-3.089029-.325823-3.597539-1.980291l-.187697.031941zm-40.699043 2.810735c-.852071.854076-.08976 2.305764-.563079 3.449536 1.108339-.963884 1.770748-2.547701 2.033375-4.056401-.490095.202286-.980191.404575-1.470296.606865zm85.308452 2.970432c1.16347.223295 3.22513.707739 2.54766 2.349605-.18313 1.459273-2.15289.721603-1.87102 2.048577-.68035 1.51248-2.35031.012864-3.36694-.309841 1.11136-1.225923-.2897-2.276275.21894-3.449536.66943-.68642 1.61295-.480765 2.47136-.638805zM127.55122 61.587c1.45384.369221 1.27827 2.074701.32007 2.902969-.50207 1.454364-3.208 1.191598-2.69223 3.005281.20652 1.598968.11069 4.098924-1.89829 4.306936-1.69594.49349-3.493-1.557714-2.45037-3.151092.69149-1.56892 1.85265-2.730962 3.18584-3.742314.4709-1.488356 1.27138-2.640529 2.76891-3.157313.21374-.197828.50298-.14315.76607-.164467zm6.53811 6.707437c.99628.235547 2.20618 1.158868 2.53396 2.171926.04993 1.484206-1.88154 2.00353-2.78421.926269-.97762-.900962-.75375-2.087706.0626-3.002374l.06255-.095821h.1251zm-1.34514 1.75671c-.13183 1.525881-.68487 2.955503-2.00208 3.800878-1.66716-.45501-.64069-2.241827.25367-2.956186.28388-.403381 1.75753-1.811579 1.74841-.844692zm-34.129636 1.405366c-2.254338-.217525-1.400176 1.196756-2.056302 2.41733-1.009188 1.869748-3.148068 2.300847-4.91374 3.050954-1.139466.670374-1.737324 2.058733-2.340699 3.148612.961674.784221 2.811616-.061606 3.596068-.91941.678296-1.223602 2.096614-3.031523 3.541935-1.743682 1.742939.345109 1.160409 2.381431-.048356 3.053327-1.423332.679514-1.944216 2.171689-2.418013 3.569278-1.302607 1.314672 1.888098.627415 2.702553 1.083931 1.284324.053284 3.45748 1.010314 3.59455-1.043984-.15894-2.899191-.859737-5.790843-1.055803-8.645458.937943-1.328431-.229116-2.811372.32271-4.117528.416751-.454466-.86966.207955-.924903.14663zm26.934556.223577c.87064.163871 3.20783.168615 2.71039 1.396034-1.53072 1.411792-.91001 1.077092.1361 2.383625.85921 1.219631-.71045 3.381885-1.97058 2.19316-.97214-2.281784-1.16186.147006-1.5745 1.39962-.6665 1.264007-1.07035 3.405734-2.86723 3.2167-1.8504-.394074-3.5688.609497-5.41238.526047-1.06019-.617311-3.39273-1.58927-2.03333-3.098201 1.5126.16386 2.192-1.07492 3.28615-1.777838 1.92876-.658751 1.10883-3.526862 2.87652-4.450493 1.33425-1.042316 2.77144-1.745412 4.48103-1.738366.12499.016321.24362-.056551.36783-.050288zm16.83021.63881c1.25609.339396 1.30112 2.178094.18769 2.619092-1.24492.268949-2.40528-1.200307-1.32639-2.165544.18867-.469101.74221-.367662 1.1387-.453548zm19.30155 21.910932c2.1754 1.509262 4.44013 3.001678 6.50683 4.63131 1.30321 3.073408 2.86637 6.097008 4.02031 9.198278.46608 1.94105-1.81463 2.56077-3.26657 2.60219-1.38134-.17673-2.89192-.89387-4.00715-1.5796-.10097-1.59367-.74375-3.46715.40667-4.82301-1.86552-1.49378-3.90882-2.92629-5.30336-4.873711-.58695-1.538838-1.39128-3.672365.07914-4.93186.5216-.068613 1.04085-.178888 1.56413-.223597zm-15.54758 1.181796c1.15467.800094.99156 2.765562-.31286 3.225949 2.90109 1.019919 5.64423 2.659863 8.071 4.631333-.02508 1.63161-1.2205 2.73965-2.71126 3.05324-2.93267.77387-6.0694-.19463-9.0824-.05089-2.21482.5256-4.4905 1.49771-6.75709 1.43735.82884 1.3707-1.03278 2.39356-2.09594 1.53308-1.1507-1.10998 1.79387-2.11099.06255-2.97043-.91044-1.85485.71517-3.55892 1.17638-5.30662 1.02805-1.685305 1.47881-4.622359 3.95399-4.435101 1.0742.867427 2.10249 1.755335 3.00316 2.810687.99746-.519349 3.82467-.195208 1.89039-1.352962-1.23257-1.803231 1.38002-2.838011 2.80208-2.575636zm-33.66045 2.235813c2.22925 2.352223 4.10839 5.303439 7.01727 6.864269 2.35095 1.44854 1.51479 4.75311 2.94514 6.861.72935 1.67052 1.30413 3.53923 2.8636 4.60839.83339-.78696 1.17612-2.15182 2.55737-2.05362.00898-1.12939-2.0246-1.47105-2.49481-2.64158-.48985-1.5111 1.13663-2.14176 2.22258-2.57637.92655-.40445 2.44704-1.89566 3.0015-.34878.91918 2.32632 1.50967 4.77565 2.77815 6.98929.36356 2.01781 1.86268-.65513 3.13449.69498 1.39973.30841 2.52817-1.20124 3.96477-.41438 1.70882.76743 3.55836-.52473 5.20112-.48 1.73996.72328 1.90769 2.75101 1.5433 4.39966-.23145 2.53819-.91387 5.16528-2.10639 7.32237-2.24622.87345-4.70886-.04503-6.94109.90603-3.30067.9137-6.66888-.39869-9.82205-1.28743-1.88201-.63804-3.92055-2.0787-5.84989-.88022-1.64389.50885-.59747 3.41338-2.60098 3.40166-1.93218.30718-3.64428-.89739-5.24929-1.80788-2.8282-2.60734-6.78603-3.49512-9.61005-6.04941-.68587-1.32749.72399-2.0206 1.23668-2.87507-.47406-1.08391-.30411-2.48092-.58955-3.36332-2.75055-.70804-5.792789-.59174-8.655589-.98013-3.333247-.12515-6.652231.00211-9.947963.54302-1.650601-.09114-3.417959-.59415-4.598585-1.69284-.655611-1.78238 1.286171-3.2016 2.878018-2.71494 2.479391.49415 4.959969-.93127 6.000357-3.23733 1.374124-2.84996 5.178419-2.99326 6.48153-5.89755 1.552278-1.755231 3.968652.35728 5.841042-.70365 1.43272-.21911 3.54771-1.311454 4.41017.41712.74221 1.65009 1.28342 3.40543 2.83603 4.48558 1.83721 1.84617 4.50398 3.31637 4.93166 6.14959.18555.91687.38156-2.23828.13379-3.03327 2.00901.60192 1.43057.04404-.09973-1.15023-2.13299-1.51275-3.46388-3.87937-4.8516-6.03736-.44137-1.353167.15332-2.763775 1.25136-3.577289l.18764.15969zm-7.13241 10.220829c-.28202 2.22508.73839-1.6823 0 0zm6.60065 5.71731c-2.02749-.58433 1.09781 2.01215 1.53348.5877 1.93464-1.6681-.5853-.48979-1.53348-.5877zm125.72596 13.15932c.47595 1.43195.53486 2.91.43793 4.4077-1.11567-.01413-3.42236-.1263-2.37749 1.56514.34286 1.1067 2.07257 1.03479 1.97202 2.56244.4633 1.94717.41307-1.80808.54933-2.55454.13722-2.63719.03336-5.40691-.73681-7.92758-.74893-1.41616-1.85065-3.32226-.7558-.64924.30359.86536.60716 1.73072.91082 2.59608zm-221.858297 2.4594c.90717 7.91729 2.214999 15.81447 4.654658 23.4046 2.207751 7.21983 5.125121 14.22867 8.67184 20.86428-.177927-1.46087-1.461836-3.0967-.071542-4.29888 1.348278-1.5049 1.705013-3.65438.717001-5.47189-1.803224-4.9177-4.832643-9.25937-7.046361-13.99475-2.271492-4.15955-3.814333-8.72604-4.590948-13.44377-.899855-4.51517-1.890015-9.01206-2.710059-13.54343.12515 2.16126.250262 4.32258.375411 6.48384zm131.763527 54.07446c.87375 1.38425.51055 2.54188-.62565 3.57738-1.10439.93398-2.81692 2.23919-4.06678.7665-.45813-1.47882.38162-3.25338 1.94534-3.63776.73707-.44039 2.0591-1.08988 2.74709-.70612zm-8.9156 10.38084c1.11407.24195 3.03629.77103 2.35535 2.31648-.71858 1.0918-2.52791-.18819-3.07486-1.23071.04037-.45392.21184-1.07054.71951-1.08577zm35.63119 5.65307c-2.04617 2.36922-4.47736 4.41292-7.4766 5.39785-1.73089 1.79818-.74682 4.69682-2.50264 6.48416-1.13221 1.63169-.19951 2.91625 1.52058 1.70497 2.6642-.97228 3.91857-3.90301 5.5876-6.04033 1.26039-2.46552 3.12259-4.69175 4.01606-7.30185-.08443-1.03414-.6405-1.27621-1.145-.2448zm-25.52683.41528c1.09829 1.5166.31202 3.39869 0 5.04652-1.28689-.77398-2.17023-1.73224-1.84569-3.35379-.11315-1.29213.85187-2.12175 1.84569-1.69273z"/>
    </g>
  </g>
</svg>